<svg width="1344" height="817" viewBox="0 0 1344 817" fill="none" xmlns="http://www.w3.org/2000/svg">
<g opacity="0.15">
<rect y="125" width="1344" height="567" fill="#F2F2F2"/>
<g opacity="0.34">
<g clip-path="url(#clip0_58114_6629)">
<path d="M163.462 139C126.097 139 95.8068 168.681 95.8068 205.294C95.8068 241.908 126.097 271.589 163.462 271.589C200.826 271.589 231.116 241.908 231.116 205.294C231.078 168.696 200.811 139.037 163.462 139ZM163.462 265.823C129.347 265.823 101.691 238.723 101.691 205.294C101.691 171.865 129.347 144.766 163.462 144.766C197.576 144.766 225.232 171.865 225.232 205.294C225.192 238.707 197.56 265.784 163.462 265.823ZM195.809 205.294C195.807 206.058 195.497 206.79 194.946 207.33C194.395 207.87 193.648 208.175 192.868 208.176H163.462C162.682 208.175 161.935 207.87 161.384 207.33C160.833 206.79 160.522 206.058 160.521 205.294V164.942C160.549 164.196 160.871 163.491 161.419 162.973C161.967 162.455 162.698 162.166 163.46 162.165C164.221 162.165 164.953 162.453 165.501 162.97C166.05 163.487 166.373 164.192 166.402 164.938V202.413H192.877C193.655 202.417 194.399 202.722 194.949 203.261C195.498 203.801 195.807 204.532 195.809 205.294Z" fill="#55B88A"/>
</g>
<g clip-path="url(#clip1_58114_6629)">
<path d="M337.109 139C299.744 139 269.454 168.681 269.454 205.294C269.454 241.908 299.744 271.589 337.109 271.589C374.473 271.589 404.764 241.908 404.764 205.294C404.726 168.696 374.458 139.037 337.109 139ZM337.109 265.823C302.994 265.823 275.338 238.723 275.338 205.294C275.338 171.865 302.994 144.766 337.109 144.766C371.224 144.766 398.88 171.865 398.88 205.294C398.84 238.707 371.207 265.784 337.109 265.823ZM369.456 205.294C369.455 206.058 369.144 206.79 368.593 207.33C368.042 207.87 367.295 208.175 366.515 208.176H337.109C336.329 208.175 335.582 207.87 335.031 207.33C334.48 206.79 334.17 206.058 334.168 205.294V164.942C334.196 164.196 334.518 163.491 335.066 162.973C335.614 162.455 336.346 162.166 337.107 162.165C337.868 162.165 338.6 162.453 339.149 162.97C339.697 163.487 340.02 164.192 340.05 164.938V202.413H366.524C367.302 202.417 368.047 202.722 368.596 203.261C369.145 203.801 369.455 204.532 369.456 205.294Z" fill="#55B88A"/>
</g>
<g clip-path="url(#clip2_58114_6629)">
<path d="M510.756 139C473.392 139 443.101 168.681 443.101 205.294C443.101 241.908 473.392 271.589 510.756 271.589C548.121 271.589 578.411 241.908 578.411 205.294C578.373 168.696 548.106 139.037 510.756 139ZM510.756 265.823C476.641 265.823 448.985 238.723 448.985 205.294C448.985 171.865 476.641 144.766 510.756 144.766C544.871 144.766 572.527 171.865 572.527 205.294C572.487 238.707 544.854 265.784 510.756 265.823ZM543.104 205.294C543.102 206.058 542.792 206.79 542.24 207.33C541.689 207.87 540.942 208.175 540.163 208.176H510.756C509.977 208.175 509.23 207.87 508.678 207.33C508.127 206.79 507.817 206.058 507.815 205.294V164.942C507.844 164.196 508.166 163.491 508.713 162.973C509.261 162.455 509.993 162.166 510.754 162.165C511.515 162.165 512.247 162.453 512.796 162.97C513.345 163.487 513.668 164.192 513.697 164.938V202.413H540.171C540.949 202.417 541.694 202.722 542.243 203.261C542.793 203.801 543.102 204.532 543.104 205.294Z" fill="#55B88A"/>
</g>
<g clip-path="url(#clip3_58114_6629)">
<path d="M684.403 139C647.039 139 616.749 168.681 616.749 205.294C616.749 241.908 647.039 271.589 684.403 271.589C721.768 271.589 752.058 241.908 752.058 205.294C752.02 168.696 721.753 139.037 684.403 139ZM684.403 265.823C650.288 265.823 622.632 238.723 622.632 205.294C622.632 171.865 650.288 144.766 684.403 144.766C718.518 144.766 746.174 171.865 746.174 205.294C746.134 238.707 718.501 265.784 684.403 265.823ZM716.751 205.294C716.749 206.058 716.439 206.79 715.888 207.33C715.336 207.87 714.589 208.175 713.81 208.176H684.403C683.624 208.175 682.877 207.87 682.326 207.33C681.775 206.79 681.464 206.058 681.463 205.294V164.942C681.491 164.196 681.813 163.491 682.361 162.973C682.909 162.455 683.64 162.166 684.401 162.165C685.163 162.165 685.894 162.453 686.443 162.97C686.992 163.487 687.315 164.192 687.344 164.938V202.413H713.818C714.596 202.417 715.341 202.722 715.891 203.261C716.44 203.801 716.749 204.532 716.751 205.294Z" fill="#55B88A"/>
</g>
<g clip-path="url(#clip4_58114_6629)">
<path d="M858.051 139C820.686 139 790.396 168.681 790.396 205.294C790.396 241.908 820.686 271.589 858.051 271.589C895.415 271.589 925.705 241.908 925.705 205.294C925.667 168.696 895.4 139.037 858.051 139ZM858.051 265.823C823.936 265.823 796.28 238.723 796.28 205.294C796.28 171.865 823.936 144.766 858.051 144.766C892.166 144.766 919.822 171.865 919.822 205.294C919.781 238.707 892.149 265.784 858.051 265.823ZM890.398 205.294C890.396 206.058 890.086 206.79 889.535 207.33C888.984 207.87 888.237 208.175 887.457 208.176H858.051C857.271 208.175 856.524 207.87 855.973 207.33C855.422 206.79 855.111 206.058 855.11 205.294V164.942C855.138 164.196 855.46 163.491 856.008 162.973C856.556 162.455 857.287 162.166 858.049 162.165C858.81 162.165 859.542 162.453 860.09 162.97C860.639 163.487 860.962 164.192 860.992 164.938V202.413H887.466C888.244 202.417 888.989 202.722 889.538 203.261C890.087 203.801 890.396 204.532 890.398 205.294Z" fill="#55B88A"/>
</g>
<g clip-path="url(#clip5_58114_6629)">
<path d="M1031.7 139C994.333 139 964.043 168.681 964.043 205.294C964.043 241.908 994.333 271.589 1031.7 271.589C1069.06 271.589 1099.35 241.908 1099.35 205.294C1099.31 168.696 1069.05 139.037 1031.7 139ZM1031.7 265.823C997.583 265.823 969.927 238.723 969.927 205.294C969.927 171.865 997.583 144.766 1031.7 144.766C1065.81 144.766 1093.47 171.865 1093.47 205.294C1093.43 238.707 1065.8 265.784 1031.7 265.823ZM1064.05 205.294C1064.04 206.058 1063.73 206.79 1063.18 207.33C1062.63 207.87 1061.88 208.175 1061.1 208.176H1031.7C1030.92 208.175 1030.17 207.87 1029.62 207.33C1029.07 206.79 1028.76 206.058 1028.76 205.294V164.942C1028.79 164.196 1029.11 163.491 1029.66 162.973C1030.2 162.455 1030.93 162.166 1031.7 162.165C1032.46 162.165 1033.19 162.453 1033.74 162.97C1034.29 163.487 1034.61 164.192 1034.64 164.938V202.413H1061.11C1061.89 202.417 1062.64 202.722 1063.19 203.261C1063.73 203.801 1064.04 204.532 1064.05 205.294Z" fill="#55B88A"/>
</g>
<g clip-path="url(#clip6_58114_6629)">
<path d="M1205.35 139C1167.98 139 1137.69 168.681 1137.69 205.294C1137.69 241.908 1167.98 271.589 1205.35 271.589C1242.71 271.589 1273 241.908 1273 205.294C1272.96 168.696 1242.69 139.037 1205.35 139ZM1205.35 265.823C1171.23 265.823 1143.57 238.723 1143.57 205.294C1143.57 171.865 1171.23 144.766 1205.35 144.766C1239.46 144.766 1267.12 171.865 1267.12 205.294C1267.08 238.707 1239.44 265.784 1205.35 265.823ZM1237.69 205.294C1237.69 206.058 1237.38 206.79 1236.83 207.33C1236.28 207.87 1235.53 208.175 1234.75 208.176H1205.35C1204.57 208.175 1203.82 207.87 1203.27 207.33C1202.72 206.79 1202.41 206.058 1202.4 205.294V164.942C1202.43 164.196 1202.75 163.491 1203.3 162.973C1203.85 162.455 1204.58 162.166 1205.34 162.165C1206.1 162.165 1206.84 162.453 1207.38 162.97C1207.93 163.487 1208.26 164.192 1208.29 164.938V202.413H1234.76C1235.54 202.417 1236.28 202.722 1236.83 203.261C1237.38 203.801 1237.69 204.532 1237.69 205.294Z" fill="#55B88A"/>
</g>
</g>
<g opacity="0.34">
<g clip-path="url(#clip7_58114_6629)">
<path d="M138.655 312.47C101.29 312.47 71 342.151 71 378.765C71 415.378 101.29 445.059 138.655 445.059C176.019 445.059 206.31 415.378 206.31 378.765C206.272 342.166 176.004 312.508 138.655 312.47ZM138.655 439.294C104.54 439.294 76.8839 412.194 76.8839 378.765C76.8839 345.336 104.54 318.236 138.655 318.236C172.77 318.236 200.426 345.336 200.426 378.765C200.386 412.177 172.753 439.254 138.655 439.294ZM171.002 378.765C171.001 379.528 170.69 380.26 170.139 380.801C169.588 381.341 168.841 381.645 168.061 381.646H138.655C137.875 381.645 137.128 381.341 136.577 380.801C136.026 380.26 135.716 379.528 135.714 378.765V338.412C135.742 337.667 136.064 336.961 136.612 336.443C137.16 335.926 137.892 335.636 138.653 335.635C139.414 335.635 140.146 335.923 140.695 336.44C141.243 336.957 141.566 337.663 141.596 338.408V375.883H168.07C168.848 375.887 169.593 376.192 170.142 376.732C170.691 377.272 171.001 378.002 171.002 378.765Z" fill="#55B88A"/>
</g>
<g clip-path="url(#clip8_58114_6629)">
<path d="M312.302 312.47C274.938 312.47 244.647 342.151 244.647 378.765C244.647 415.378 274.938 445.059 312.302 445.059C349.667 445.059 379.957 415.378 379.957 378.765C379.919 342.166 349.652 312.508 312.302 312.47ZM312.302 439.294C278.187 439.294 250.531 412.194 250.531 378.765C250.531 345.336 278.187 318.236 312.302 318.236C346.417 318.236 374.073 345.336 374.073 378.765C374.033 412.177 346.4 439.254 312.302 439.294ZM344.65 378.765C344.648 379.528 344.337 380.26 343.786 380.801C343.235 381.341 342.488 381.645 341.709 381.646H312.302C311.523 381.645 310.776 381.341 310.224 380.801C309.673 380.26 309.363 379.528 309.361 378.765V338.412C309.389 337.667 309.711 336.961 310.259 336.443C310.807 335.926 311.539 335.636 312.3 335.635C313.061 335.635 313.793 335.923 314.342 336.44C314.891 336.957 315.214 337.663 315.243 338.408V375.883H341.717C342.495 375.887 343.24 376.192 343.789 376.732C344.339 377.272 344.648 378.002 344.65 378.765Z" fill="#55B88A"/>
</g>
<g clip-path="url(#clip9_58114_6629)">
<path d="M485.949 312.47C448.585 312.47 418.295 342.151 418.295 378.765C418.295 415.378 448.585 445.059 485.949 445.059C523.314 445.059 553.604 415.378 553.604 378.765C553.566 342.166 523.299 312.508 485.949 312.47ZM485.949 439.294C451.834 439.294 424.178 412.194 424.178 378.765C424.178 345.336 451.834 318.236 485.949 318.236C520.064 318.236 547.72 345.336 547.72 378.765C547.68 412.177 520.047 439.254 485.949 439.294ZM518.297 378.765C518.295 379.528 517.985 380.26 517.434 380.801C516.882 381.341 516.135 381.645 515.356 381.646H485.949C485.17 381.645 484.423 381.341 483.872 380.801C483.321 380.26 483.01 379.528 483.008 378.765V338.412C483.037 337.667 483.359 336.961 483.907 336.443C484.455 335.926 485.186 335.636 485.947 335.635C486.709 335.635 487.44 335.923 487.989 336.44C488.538 336.957 488.861 337.663 488.89 338.408V375.883H515.364C516.142 375.887 516.887 376.192 517.437 376.732C517.986 377.272 518.295 378.002 518.297 378.765Z" fill="#55B88A"/>
</g>
<g clip-path="url(#clip10_58114_6629)">
<path d="M659.597 312.47C622.232 312.47 591.942 342.151 591.942 378.765C591.942 415.378 622.232 445.059 659.597 445.059C696.961 445.059 727.251 415.378 727.251 378.765C727.213 342.166 696.946 312.508 659.597 312.47ZM659.597 439.294C625.482 439.294 597.826 412.194 597.826 378.765C597.826 345.336 625.482 318.236 659.597 318.236C693.712 318.236 721.368 345.336 721.368 378.765C721.327 412.177 693.695 439.254 659.597 439.294ZM691.944 378.765C691.942 379.528 691.632 380.26 691.081 380.801C690.53 381.341 689.783 381.645 689.003 381.646H659.597C658.817 381.645 658.07 381.341 657.519 380.801C656.968 380.26 656.657 379.528 656.656 378.765V338.412C656.684 337.667 657.006 336.961 657.554 336.443C658.102 335.926 658.833 335.636 659.595 335.635C660.356 335.635 661.088 335.923 661.636 336.44C662.185 336.957 662.508 337.663 662.537 338.408V375.883H689.012C689.79 375.887 690.535 376.192 691.084 376.732C691.633 377.272 691.942 378.002 691.944 378.765Z" fill="#55B88A"/>
</g>
<g clip-path="url(#clip11_58114_6629)">
<path d="M833.244 312.47C795.879 312.47 765.589 342.151 765.589 378.765C765.589 415.378 795.879 445.059 833.244 445.059C870.608 445.059 900.899 415.378 900.899 378.765C900.861 342.166 870.594 312.508 833.244 312.47ZM833.244 439.294C799.129 439.294 771.473 412.194 771.473 378.765C771.473 345.336 799.129 318.236 833.244 318.236C867.359 318.236 895.015 345.336 895.015 378.765C894.975 412.177 867.342 439.254 833.244 439.294ZM865.591 378.765C865.59 379.528 865.279 380.26 864.728 380.801C864.177 381.341 863.43 381.645 862.65 381.646H833.244C832.464 381.645 831.717 381.341 831.166 380.801C830.615 380.26 830.305 379.528 830.303 378.765V338.412C830.331 337.667 830.653 336.961 831.201 336.443C831.749 335.926 832.481 335.636 833.242 335.635C834.003 335.635 834.735 335.923 835.284 336.44C835.832 336.957 836.155 337.663 836.185 338.408V375.883H862.659C863.437 375.887 864.182 376.192 864.731 376.732C865.28 377.272 865.59 378.002 865.591 378.765Z" fill="#55B88A"/>
</g>
<g clip-path="url(#clip12_58114_6629)">
<path d="M1006.89 312.47C969.527 312.47 939.236 342.151 939.236 378.765C939.236 415.378 969.527 445.059 1006.89 445.059C1044.26 445.059 1074.55 415.378 1074.55 378.765C1074.51 342.166 1044.24 312.508 1006.89 312.47ZM1006.89 439.294C972.776 439.294 945.12 412.194 945.12 378.765C945.12 345.336 972.776 318.236 1006.89 318.236C1041.01 318.236 1068.66 345.336 1068.66 378.765C1068.62 412.177 1040.99 439.254 1006.89 439.294ZM1039.24 378.765C1039.24 379.528 1038.93 380.26 1038.38 380.801C1037.82 381.341 1037.08 381.645 1036.3 381.646H1006.89C1006.11 381.645 1005.36 381.341 1004.81 380.801C1004.26 380.26 1003.95 379.528 1003.95 378.765V338.412C1003.98 337.667 1004.3 336.961 1004.85 336.443C1005.4 335.926 1006.13 335.636 1006.89 335.635C1007.65 335.635 1008.38 335.923 1008.93 336.44C1009.48 336.957 1009.8 337.663 1009.83 338.408V375.883H1036.31C1037.08 375.887 1037.83 376.192 1038.38 376.732C1038.93 377.272 1039.24 378.002 1039.24 378.765Z" fill="#55B88A"/>
</g>
<g clip-path="url(#clip13_58114_6629)">
<path d="M1180.54 312.47C1143.17 312.47 1112.88 342.151 1112.88 378.765C1112.88 415.378 1143.17 445.059 1180.54 445.059C1217.9 445.059 1248.19 415.378 1248.19 378.765C1248.16 342.166 1217.89 312.508 1180.54 312.47ZM1180.54 439.294C1146.42 439.294 1118.77 412.194 1118.77 378.765C1118.77 345.336 1146.42 318.236 1180.54 318.236C1214.65 318.236 1242.31 345.336 1242.31 378.765C1242.27 412.177 1214.64 439.254 1180.54 439.294ZM1212.89 378.765C1212.88 379.528 1212.57 380.26 1212.02 380.801C1211.47 381.341 1210.72 381.645 1209.95 381.646H1180.54C1179.76 381.645 1179.01 381.341 1178.46 380.801C1177.91 380.26 1177.6 379.528 1177.6 378.765V338.412C1177.63 337.667 1177.95 336.961 1178.5 336.443C1179.04 335.926 1179.78 335.636 1180.54 335.635C1181.3 335.635 1182.03 335.923 1182.58 336.44C1183.13 336.957 1183.45 337.663 1183.48 338.408V375.883H1209.95C1210.73 375.887 1211.48 376.192 1212.03 376.732C1212.58 377.272 1212.88 378.002 1212.89 378.765Z" fill="#55B88A"/>
</g>
</g>
<g opacity="0.34">
<g clip-path="url(#clip14_58114_6629)">
<path d="M138.655 485.941C101.29 485.941 71 515.622 71 552.235C71 588.849 101.29 618.53 138.655 618.53C176.019 618.53 206.31 588.849 206.31 552.235C206.272 515.637 176.004 485.978 138.655 485.941ZM138.655 612.764C104.54 612.764 76.8839 585.664 76.8839 552.235C76.8839 518.806 104.54 491.706 138.655 491.706C172.77 491.706 200.426 518.806 200.426 552.235C200.386 585.648 172.753 612.725 138.655 612.764ZM171.002 552.235C171.001 552.999 170.69 553.731 170.139 554.271C169.588 554.811 168.841 555.115 168.061 555.117H138.655C137.875 555.115 137.128 554.811 136.577 554.271C136.026 553.731 135.716 552.999 135.714 552.235V511.883C135.742 511.137 136.064 510.432 136.612 509.914C137.16 509.396 137.892 509.107 138.653 509.106C139.414 509.106 140.146 509.394 140.695 509.911C141.243 510.428 141.566 511.133 141.596 511.879V549.354H168.07C168.848 549.357 169.593 549.663 170.142 550.202C170.691 550.742 171.001 551.473 171.002 552.235Z" fill="#55B88A"/>
</g>
<g clip-path="url(#clip15_58114_6629)">
<path d="M312.302 485.941C274.938 485.941 244.647 515.622 244.647 552.235C244.647 588.849 274.938 618.53 312.302 618.53C349.667 618.53 379.957 588.849 379.957 552.235C379.919 515.637 349.652 485.978 312.302 485.941ZM312.302 612.764C278.187 612.764 250.531 585.664 250.531 552.235C250.531 518.806 278.187 491.706 312.302 491.706C346.417 491.706 374.073 518.806 374.073 552.235C374.033 585.648 346.4 612.725 312.302 612.764ZM344.65 552.235C344.648 552.999 344.337 553.731 343.786 554.271C343.235 554.811 342.488 555.115 341.709 555.117H312.302C311.523 555.115 310.776 554.811 310.224 554.271C309.673 553.731 309.363 552.999 309.361 552.235V511.883C309.389 511.137 309.711 510.432 310.259 509.914C310.807 509.396 311.539 509.107 312.3 509.106C313.061 509.106 313.793 509.394 314.342 509.911C314.891 510.428 315.214 511.133 315.243 511.879V549.354H341.717C342.495 549.357 343.24 549.663 343.789 550.202C344.339 550.742 344.648 551.473 344.65 552.235Z" fill="#55B88A"/>
</g>
<g clip-path="url(#clip16_58114_6629)">
<path d="M485.949 485.941C448.585 485.941 418.295 515.622 418.295 552.235C418.295 588.849 448.585 618.53 485.949 618.53C523.314 618.53 553.604 588.849 553.604 552.235C553.566 515.637 523.299 485.978 485.949 485.941ZM485.949 612.764C451.834 612.764 424.178 585.664 424.178 552.235C424.178 518.806 451.834 491.706 485.949 491.706C520.064 491.706 547.72 518.806 547.72 552.235C547.68 585.648 520.047 612.725 485.949 612.764ZM518.297 552.235C518.295 552.999 517.985 553.731 517.434 554.271C516.882 554.811 516.135 555.115 515.356 555.117H485.949C485.17 555.115 484.423 554.811 483.872 554.271C483.321 553.731 483.01 552.999 483.008 552.235V511.883C483.037 511.137 483.359 510.432 483.907 509.914C484.455 509.396 485.186 509.107 485.947 509.106C486.709 509.106 487.44 509.394 487.989 509.911C488.538 510.428 488.861 511.133 488.89 511.879V549.354H515.364C516.142 549.357 516.887 549.663 517.437 550.202C517.986 550.742 518.295 551.473 518.297 552.235Z" fill="#55B88A"/>
</g>
<g clip-path="url(#clip17_58114_6629)">
<path d="M659.597 485.941C622.232 485.941 591.942 515.622 591.942 552.235C591.942 588.849 622.232 618.53 659.597 618.53C696.961 618.53 727.251 588.849 727.251 552.235C727.213 515.637 696.946 485.978 659.597 485.941ZM659.597 612.764C625.482 612.764 597.826 585.664 597.826 552.235C597.826 518.806 625.482 491.706 659.597 491.706C693.712 491.706 721.368 518.806 721.368 552.235C721.327 585.648 693.695 612.725 659.597 612.764ZM691.944 552.235C691.942 552.999 691.632 553.731 691.081 554.271C690.53 554.811 689.783 555.115 689.003 555.117H659.597C658.817 555.115 658.07 554.811 657.519 554.271C656.968 553.731 656.657 552.999 656.656 552.235V511.883C656.684 511.137 657.006 510.432 657.554 509.914C658.102 509.396 658.833 509.107 659.595 509.106C660.356 509.106 661.088 509.394 661.636 509.911C662.185 510.428 662.508 511.133 662.537 511.879V549.354H689.012C689.79 549.357 690.535 549.663 691.084 550.202C691.633 550.742 691.942 551.473 691.944 552.235Z" fill="#55B88A"/>
</g>
<g clip-path="url(#clip18_58114_6629)">
<path d="M833.244 485.941C795.879 485.941 765.589 515.622 765.589 552.235C765.589 588.849 795.879 618.53 833.244 618.53C870.608 618.53 900.899 588.849 900.899 552.235C900.861 515.637 870.594 485.978 833.244 485.941ZM833.244 612.764C799.129 612.764 771.473 585.664 771.473 552.235C771.473 518.806 799.129 491.706 833.244 491.706C867.359 491.706 895.015 518.806 895.015 552.235C894.975 585.648 867.342 612.725 833.244 612.764ZM865.591 552.235C865.59 552.999 865.279 553.731 864.728 554.271C864.177 554.811 863.43 555.115 862.65 555.117H833.244C832.464 555.115 831.717 554.811 831.166 554.271C830.615 553.731 830.305 552.999 830.303 552.235V511.883C830.331 511.137 830.653 510.432 831.201 509.914C831.749 509.396 832.481 509.107 833.242 509.106C834.003 509.106 834.735 509.394 835.284 509.911C835.832 510.428 836.155 511.133 836.185 511.879V549.354H862.659C863.437 549.357 864.182 549.663 864.731 550.202C865.28 550.742 865.59 551.473 865.591 552.235Z" fill="#55B88A"/>
</g>
<g clip-path="url(#clip19_58114_6629)">
<path d="M1006.89 485.941C969.527 485.941 939.236 515.622 939.236 552.235C939.236 588.849 969.527 618.53 1006.89 618.53C1044.26 618.53 1074.55 588.849 1074.55 552.235C1074.51 515.637 1044.24 485.978 1006.89 485.941ZM1006.89 612.764C972.776 612.764 945.12 585.664 945.12 552.235C945.12 518.806 972.776 491.706 1006.89 491.706C1041.01 491.706 1068.66 518.806 1068.66 552.235C1068.62 585.648 1040.99 612.725 1006.89 612.764ZM1039.24 552.235C1039.24 552.999 1038.93 553.731 1038.38 554.271C1037.82 554.811 1037.08 555.115 1036.3 555.117H1006.89C1006.11 555.115 1005.36 554.811 1004.81 554.271C1004.26 553.731 1003.95 552.999 1003.95 552.235V511.883C1003.98 511.137 1004.3 510.432 1004.85 509.914C1005.4 509.396 1006.13 509.107 1006.89 509.106C1007.65 509.106 1008.38 509.394 1008.93 509.911C1009.48 510.428 1009.8 511.133 1009.83 511.879V549.354H1036.31C1037.08 549.357 1037.83 549.663 1038.38 550.202C1038.93 550.742 1039.24 551.473 1039.24 552.235Z" fill="#55B88A"/>
</g>
<g clip-path="url(#clip20_58114_6629)">
<path d="M1180.54 485.941C1143.17 485.941 1112.88 515.622 1112.88 552.235C1112.88 588.849 1143.17 618.53 1180.54 618.53C1217.9 618.53 1248.19 588.849 1248.19 552.235C1248.16 515.637 1217.89 485.978 1180.54 485.941ZM1180.54 612.764C1146.42 612.764 1118.77 585.664 1118.77 552.235C1118.77 518.806 1146.42 491.706 1180.54 491.706C1214.65 491.706 1242.31 518.806 1242.31 552.235C1242.27 585.648 1214.64 612.725 1180.54 612.764ZM1212.89 552.235C1212.88 552.999 1212.57 553.731 1212.02 554.271C1211.47 554.811 1210.72 555.115 1209.95 555.117H1180.54C1179.76 555.115 1179.01 554.811 1178.46 554.271C1177.91 553.731 1177.6 552.999 1177.6 552.235V511.883C1177.63 511.137 1177.95 510.432 1178.5 509.914C1179.04 509.396 1179.78 509.107 1180.54 509.106C1181.3 509.106 1182.03 509.394 1182.58 509.911C1183.13 510.428 1183.45 511.133 1183.48 511.879V549.354H1209.95C1210.73 549.357 1211.48 549.663 1212.03 550.202C1212.58 550.742 1212.88 551.473 1212.89 552.235Z" fill="#55B88A"/>
</g>
</g>
<g opacity="0.34">
<g clip-path="url(#clip21_58114_6629)">
<path d="M138.655 659.411C101.29 659.411 71 689.092 71 725.706C71 762.319 101.29 792 138.655 792C176.019 792 206.31 762.319 206.31 725.706C206.272 689.107 176.004 659.448 138.655 659.411ZM138.655 786.234C104.54 786.234 76.8839 759.135 76.8839 725.706C76.8839 692.277 104.54 665.177 138.655 665.177C172.77 665.177 200.426 692.277 200.426 725.706C200.386 759.118 172.753 786.195 138.655 786.234ZM171.002 725.706C171.001 726.469 170.69 727.201 170.139 727.741C169.588 728.282 168.841 728.586 168.061 728.587H138.655C137.875 728.586 137.128 728.282 136.577 727.741C136.026 727.201 135.716 726.469 135.714 725.706V685.353C135.742 684.608 136.064 683.902 136.612 683.384C137.16 682.866 137.892 682.577 138.653 682.576C139.414 682.576 140.146 682.864 140.695 683.381C141.243 683.898 141.566 684.603 141.596 685.349V722.824H168.07C168.848 722.828 169.593 723.133 170.142 723.673C170.691 724.212 171.001 724.943 171.002 725.706Z" fill="#55B88A"/>
</g>
<g clip-path="url(#clip22_58114_6629)">
<path d="M312.302 659.411C274.938 659.411 244.647 689.092 244.647 725.706C244.647 762.319 274.938 792 312.302 792C349.667 792 379.957 762.319 379.957 725.706C379.919 689.107 349.652 659.448 312.302 659.411ZM312.302 786.234C278.187 786.234 250.531 759.135 250.531 725.706C250.531 692.277 278.187 665.177 312.302 665.177C346.417 665.177 374.073 692.277 374.073 725.706C374.033 759.118 346.4 786.195 312.302 786.234ZM344.65 725.706C344.648 726.469 344.337 727.201 343.786 727.741C343.235 728.282 342.488 728.586 341.709 728.587H312.302C311.523 728.586 310.776 728.282 310.224 727.741C309.673 727.201 309.363 726.469 309.361 725.706V685.353C309.389 684.608 309.711 683.902 310.259 683.384C310.807 682.866 311.539 682.577 312.3 682.576C313.061 682.576 313.793 682.864 314.342 683.381C314.891 683.898 315.214 684.603 315.243 685.349V722.824H341.717C342.495 722.828 343.24 723.133 343.789 723.673C344.339 724.212 344.648 724.943 344.65 725.706Z" fill="#55B88A"/>
</g>
<g clip-path="url(#clip23_58114_6629)">
<path d="M485.949 659.411C448.585 659.411 418.295 689.092 418.295 725.706C418.295 762.319 448.585 792 485.949 792C523.314 792 553.604 762.319 553.604 725.706C553.566 689.107 523.299 659.448 485.949 659.411ZM485.949 786.234C451.834 786.234 424.178 759.135 424.178 725.706C424.178 692.277 451.834 665.177 485.949 665.177C520.064 665.177 547.72 692.277 547.72 725.706C547.68 759.118 520.047 786.195 485.949 786.234ZM518.297 725.706C518.295 726.469 517.985 727.201 517.434 727.741C516.882 728.282 516.135 728.586 515.356 728.587H485.949C485.17 728.586 484.423 728.282 483.872 727.741C483.321 727.201 483.01 726.469 483.008 725.706V685.353C483.037 684.608 483.359 683.902 483.907 683.384C484.455 682.866 485.186 682.577 485.947 682.576C486.709 682.576 487.44 682.864 487.989 683.381C488.538 683.898 488.861 684.603 488.89 685.349V722.824H515.364C516.142 722.828 516.887 723.133 517.437 723.673C517.986 724.212 518.295 724.943 518.297 725.706Z" fill="#55B88A"/>
</g>
<g clip-path="url(#clip24_58114_6629)">
<path d="M659.597 659.411C622.232 659.411 591.942 689.092 591.942 725.706C591.942 762.319 622.232 792 659.597 792C696.961 792 727.251 762.319 727.251 725.706C727.213 689.107 696.946 659.448 659.597 659.411ZM659.597 786.234C625.482 786.234 597.826 759.135 597.826 725.706C597.826 692.277 625.482 665.177 659.597 665.177C693.712 665.177 721.368 692.277 721.368 725.706C721.327 759.118 693.695 786.195 659.597 786.234ZM691.944 725.706C691.942 726.469 691.632 727.201 691.081 727.741C690.53 728.282 689.783 728.586 689.003 728.587H659.597C658.817 728.586 658.07 728.282 657.519 727.741C656.968 727.201 656.657 726.469 656.656 725.706V685.353C656.684 684.608 657.006 683.902 657.554 683.384C658.102 682.866 658.833 682.577 659.595 682.576C660.356 682.576 661.088 682.864 661.636 683.381C662.185 683.898 662.508 684.603 662.537 685.349V722.824H689.012C689.79 722.828 690.535 723.133 691.084 723.673C691.633 724.212 691.942 724.943 691.944 725.706Z" fill="#55B88A"/>
</g>
<g clip-path="url(#clip25_58114_6629)">
<path d="M833.244 659.411C795.879 659.411 765.589 689.092 765.589 725.706C765.589 762.319 795.879 792 833.244 792C870.608 792 900.899 762.319 900.899 725.706C900.861 689.107 870.594 659.448 833.244 659.411ZM833.244 786.234C799.129 786.234 771.473 759.135 771.473 725.706C771.473 692.277 799.129 665.177 833.244 665.177C867.359 665.177 895.015 692.277 895.015 725.706C894.975 759.118 867.342 786.195 833.244 786.234ZM865.591 725.706C865.59 726.469 865.279 727.201 864.728 727.741C864.177 728.282 863.43 728.586 862.65 728.587H833.244C832.464 728.586 831.717 728.282 831.166 727.741C830.615 727.201 830.305 726.469 830.303 725.706V685.353C830.331 684.608 830.653 683.902 831.201 683.384C831.749 682.866 832.481 682.577 833.242 682.576C834.003 682.576 834.735 682.864 835.284 683.381C835.832 683.898 836.155 684.603 836.185 685.349V722.824H862.659C863.437 722.828 864.182 723.133 864.731 723.673C865.28 724.212 865.59 724.943 865.591 725.706Z" fill="#55B88A"/>
</g>
<g clip-path="url(#clip26_58114_6629)">
<path d="M1006.89 659.411C969.527 659.411 939.236 689.092 939.236 725.706C939.236 762.319 969.527 792 1006.89 792C1044.26 792 1074.55 762.319 1074.55 725.706C1074.51 689.107 1044.24 659.448 1006.89 659.411ZM1006.89 786.234C972.776 786.234 945.12 759.135 945.12 725.706C945.12 692.277 972.776 665.177 1006.89 665.177C1041.01 665.177 1068.66 692.277 1068.66 725.706C1068.62 759.118 1040.99 786.195 1006.89 786.234ZM1039.24 725.706C1039.24 726.469 1038.93 727.201 1038.38 727.741C1037.82 728.282 1037.08 728.586 1036.3 728.587H1006.89C1006.11 728.586 1005.36 728.282 1004.81 727.741C1004.26 727.201 1003.95 726.469 1003.95 725.706V685.353C1003.98 684.608 1004.3 683.902 1004.85 683.384C1005.4 682.866 1006.13 682.577 1006.89 682.576C1007.65 682.576 1008.38 682.864 1008.93 683.381C1009.48 683.898 1009.8 684.603 1009.83 685.349V722.824H1036.31C1037.08 722.828 1037.83 723.133 1038.38 723.673C1038.93 724.212 1039.24 724.943 1039.24 725.706Z" fill="#55B88A"/>
</g>
<g clip-path="url(#clip27_58114_6629)">
<path d="M1180.54 659.411C1143.17 659.411 1112.88 689.092 1112.88 725.706C1112.88 762.319 1143.17 792 1180.54 792C1217.9 792 1248.19 762.319 1248.19 725.706C1248.16 689.107 1217.89 659.448 1180.54 659.411ZM1180.54 786.234C1146.42 786.234 1118.77 759.135 1118.77 725.706C1118.77 692.277 1146.42 665.177 1180.54 665.177C1214.65 665.177 1242.31 692.277 1242.31 725.706C1242.27 759.118 1214.64 786.195 1180.54 786.234ZM1212.89 725.706C1212.88 726.469 1212.57 727.201 1212.02 727.741C1211.47 728.282 1210.72 728.586 1209.95 728.587H1180.54C1179.76 728.586 1179.01 728.282 1178.46 727.741C1177.91 727.201 1177.6 726.469 1177.6 725.706V685.353C1177.63 684.608 1177.95 683.902 1178.5 683.384C1179.04 682.866 1179.78 682.577 1180.54 682.576C1181.3 682.576 1182.03 682.864 1182.58 683.381C1183.13 683.898 1183.45 684.603 1183.48 685.349V722.824H1209.95C1210.73 722.828 1211.48 723.133 1212.03 723.673C1212.58 724.212 1212.88 724.943 1212.89 725.706Z" fill="#55B88A"/>
</g>
</g>
</g>
<defs>
<clipPath id="clip0_58114_6629">
<rect width="135.31" height="132.589" fill="white" transform="translate(95.8068 139)"/>
</clipPath>
<clipPath id="clip1_58114_6629">
<rect width="135.31" height="132.589" fill="white" transform="translate(269.454 139)"/>
</clipPath>
<clipPath id="clip2_58114_6629">
<rect width="135.31" height="132.589" fill="white" transform="translate(443.101 139)"/>
</clipPath>
<clipPath id="clip3_58114_6629">
<rect width="135.31" height="132.589" fill="white" transform="translate(616.749 139)"/>
</clipPath>
<clipPath id="clip4_58114_6629">
<rect width="135.31" height="132.589" fill="white" transform="translate(790.396 139)"/>
</clipPath>
<clipPath id="clip5_58114_6629">
<rect width="135.31" height="132.589" fill="white" transform="translate(964.043 139)"/>
</clipPath>
<clipPath id="clip6_58114_6629">
<rect width="135.31" height="132.589" fill="white" transform="translate(1137.69 139)"/>
</clipPath>
<clipPath id="clip7_58114_6629">
<rect width="135.31" height="132.589" fill="white" transform="translate(71 312.47)"/>
</clipPath>
<clipPath id="clip8_58114_6629">
<rect width="135.31" height="132.589" fill="white" transform="translate(244.647 312.47)"/>
</clipPath>
<clipPath id="clip9_58114_6629">
<rect width="135.31" height="132.589" fill="white" transform="translate(418.295 312.47)"/>
</clipPath>
<clipPath id="clip10_58114_6629">
<rect width="135.31" height="132.589" fill="white" transform="translate(591.942 312.47)"/>
</clipPath>
<clipPath id="clip11_58114_6629">
<rect width="135.31" height="132.589" fill="white" transform="translate(765.589 312.47)"/>
</clipPath>
<clipPath id="clip12_58114_6629">
<rect width="135.31" height="132.589" fill="white" transform="translate(939.236 312.47)"/>
</clipPath>
<clipPath id="clip13_58114_6629">
<rect width="135.31" height="132.589" fill="white" transform="translate(1112.88 312.47)"/>
</clipPath>
<clipPath id="clip14_58114_6629">
<rect width="135.31" height="132.589" fill="white" transform="translate(71 485.941)"/>
</clipPath>
<clipPath id="clip15_58114_6629">
<rect width="135.31" height="132.589" fill="white" transform="translate(244.647 485.941)"/>
</clipPath>
<clipPath id="clip16_58114_6629">
<rect width="135.31" height="132.589" fill="white" transform="translate(418.295 485.941)"/>
</clipPath>
<clipPath id="clip17_58114_6629">
<rect width="135.31" height="132.589" fill="white" transform="translate(591.942 485.941)"/>
</clipPath>
<clipPath id="clip18_58114_6629">
<rect width="135.31" height="132.589" fill="white" transform="translate(765.589 485.941)"/>
</clipPath>
<clipPath id="clip19_58114_6629">
<rect width="135.31" height="132.589" fill="white" transform="translate(939.236 485.941)"/>
</clipPath>
<clipPath id="clip20_58114_6629">
<rect width="135.31" height="132.589" fill="white" transform="translate(1112.88 485.941)"/>
</clipPath>
<clipPath id="clip21_58114_6629">
<rect width="135.31" height="132.589" fill="white" transform="translate(71 659.411)"/>
</clipPath>
<clipPath id="clip22_58114_6629">
<rect width="135.31" height="132.589" fill="white" transform="translate(244.647 659.411)"/>
</clipPath>
<clipPath id="clip23_58114_6629">
<rect width="135.31" height="132.589" fill="white" transform="translate(418.295 659.411)"/>
</clipPath>
<clipPath id="clip24_58114_6629">
<rect width="135.31" height="132.589" fill="white" transform="translate(591.942 659.411)"/>
</clipPath>
<clipPath id="clip25_58114_6629">
<rect width="135.31" height="132.589" fill="white" transform="translate(765.589 659.411)"/>
</clipPath>
<clipPath id="clip26_58114_6629">
<rect width="135.31" height="132.589" fill="white" transform="translate(939.236 659.411)"/>
</clipPath>
<clipPath id="clip27_58114_6629">
<rect width="135.31" height="132.589" fill="white" transform="translate(1112.88 659.411)"/>
</clipPath>
</defs>
</svg>
