<svg width="102" height="100" viewBox="0 0 102 100" fill="none" xmlns="http://www.w3.org/2000/svg">
<path d="M64.5 69.5833L70.402 63.75L54.8039 48.3333V29.1667H46.3726V51.6667L64.5 69.5833ZM50.5883 91.6667C44.7566 91.6667 39.2762 90.5729 34.1471 88.3854C29.018 86.1979 24.5564 83.2292 20.7623 79.4792C16.9682 75.7292 13.9645 71.3195 11.7512 66.25C9.53801 61.1806 8.4314 55.7639 8.4314 50C8.4314 44.2361 9.53801 38.8195 11.7512 33.75C13.9645 28.6806 16.9682 24.2708 20.7623 20.5208C24.5564 16.7708 29.018 13.8021 34.1471 11.6146C39.2762 9.42709 44.7566 8.33334 50.5883 8.33334C56.42 8.33334 61.9003 9.42709 67.0294 11.6146C72.1585 13.8021 76.6201 16.7708 80.4142 20.5208C84.2084 24.2708 87.212 28.6806 89.4253 33.75C91.6385 38.8195 92.7451 44.2361 92.7451 50C92.7451 55.7639 91.6385 61.1806 89.4253 66.25C87.212 71.3195 84.2084 75.7292 80.4142 79.4792C76.6201 83.2292 72.1585 86.1979 67.0294 88.3854C61.9003 90.5729 56.42 91.6667 50.5883 91.6667ZM50.5883 83.3333C59.933 83.3333 67.8901 80.0868 74.4596 73.5938C81.029 67.1007 84.3137 59.2361 84.3137 50C84.3137 40.7639 81.029 32.8993 74.4596 26.4063C67.8901 19.9132 59.933 16.6667 50.5883 16.6667C41.2435 16.6667 33.2864 19.9132 26.7169 26.4063C20.1475 32.8993 16.8628 40.7639 16.8628 50C16.8628 59.2361 20.1475 67.1007 26.7169 73.5938C33.2864 80.0868 41.2435 83.3333 50.5883 83.3333Z" fill="#006769"/>
</svg>
